<svg xmlns="http://www.w3.org/2000/svg" xmlns:xlink="http://www.w3.org/1999/xlink" width="500" zoomAndPan="magnify" viewBox="0 0 375 374.999991" height="500" preserveAspectRatio="xMidYMid meet" version="1.0"><defs><g/><clipPath id="673da069ab"><path d="M 64.183594 145.910156 L 310.816406 145.910156 L 310.816406 147.507812 L 64.183594 147.507812 Z M 309.183594 147.507812 L 310.816406 147.507812 L 310.816406 227.457031 L 309.183594 227.457031 Z M 64.183594 147.507812 L 65.785156 147.507812 L 65.785156 227.457031 L 64.183594 227.457031 Z M 64.183594 227.457031 L 310.816406 227.457031 L 310.816406 229.089844 L 64.183594 229.089844 Z M 64.183594 227.457031 " clip-rule="nonzero"/></clipPath></defs><g clip-path="url(#673da069ab)"><path fill="#ffffff" d="M 64.183594 145.910156 L 310.804688 145.910156 L 310.804688 229.089844 L 64.183594 229.089844 Z M 64.183594 145.910156 " fill-opacity="1" fill-rule="nonzero"/></g><g fill="#ffffff" fill-opacity="1"><g transform="translate(90.61343, 205.790187)"><g><path d="M 19.265625 0.859375 C 16.160156 0.859375 13.34375 0.0351562 10.8125 -1.609375 C 8.28125 -3.253906 6.273438 -5.65625 4.796875 -8.8125 C 3.328125 -11.976562 2.59375 -15.75 2.59375 -20.125 C 2.59375 -24.5 3.328125 -28.265625 4.796875 -31.421875 C 6.273438 -34.585938 8.28125 -36.992188 10.8125 -38.640625 C 13.34375 -40.285156 16.160156 -41.109375 19.265625 -41.109375 C 22.367188 -41.109375 25.1875 -40.285156 27.71875 -38.640625 C 30.25 -36.992188 32.25 -34.585938 33.71875 -31.421875 C 35.195312 -28.265625 35.9375 -24.5 35.9375 -20.125 C 35.9375 -15.75 35.195312 -11.976562 33.71875 -8.8125 C 32.25 -5.65625 30.25 -3.253906 27.71875 -1.609375 C 25.1875 0.0351562 22.367188 0.859375 19.265625 0.859375 Z M 19.265625 -0.28125 C 23.671875 -0.28125 25.875 -6.894531 25.875 -20.125 C 25.875 -33.351562 23.671875 -39.96875 19.265625 -39.96875 C 14.859375 -39.96875 12.65625 -33.351562 12.65625 -20.125 C 12.65625 -6.894531 14.859375 -0.28125 19.265625 -0.28125 Z M 19.265625 -0.28125 "/></g></g></g><g fill="#ffffff" fill-opacity="1"><g transform="translate(129.133244, 205.790187)"><g><path d="M 8.34375 0 C 8.34375 -3.789062 8.867188 -7.148438 9.921875 -10.078125 C 10.972656 -13.015625 12.242188 -15.523438 13.734375 -17.609375 C 15.234375 -19.703125 17.191406 -22.070312 19.609375 -24.71875 C 21.710938 -27.019531 23.367188 -28.984375 24.578125 -30.609375 C 25.785156 -32.242188 26.695312 -34.019531 27.3125 -35.9375 L 6.90625 -35.9375 C 6.632812 -33.863281 5.976562 -32.140625 4.9375 -30.765625 C 4.519531 -30.109375 4.023438 -29.53125 3.453125 -29.03125 L 1.71875 -29.03125 L 1.71875 -40.25 L 29.03125 -40.25 L 29.03125 -37.65625 C 29.03125 -35.507812 28.695312 -33.515625 28.03125 -31.671875 C 27.363281 -29.835938 26.316406 -27.460938 24.890625 -24.546875 C 23.515625 -21.828125 22.394531 -19.410156 21.53125 -17.296875 C 20.664062 -15.191406 19.925781 -12.671875 19.3125 -9.734375 C 18.707031 -6.804688 18.40625 -3.5625 18.40625 0 Z M 8.34375 0 "/></g></g></g><g fill="#ffffff" fill-opacity="1"><g transform="translate(159.604144, 205.790187)"><g><path d="M 21.28125 0.859375 C 18.707031 0.859375 16.554688 0 14.828125 -1.71875 C 14.109375 -2.488281 13.476562 -3.351562 12.9375 -4.3125 C 12.664062 -3.46875 12.207031 -2.703125 11.5625 -2.015625 C 10.101562 -0.484375 7.972656 0.28125 5.171875 0.28125 L 4.59375 0.28125 L 4.59375 -38.53125 L 1.15625 -39.390625 L 1.15625 -40.25 L 8.625 -40.25 C 12.070312 -40.25 13.796875 -38.523438 13.796875 -35.078125 L 13.796875 -27.3125 C 14.410156 -27.8125 15.003906 -28.195312 15.578125 -28.46875 C 16.960938 -29.226562 18.570312 -29.609375 20.40625 -29.609375 C 24.28125 -29.609375 27.359375 -28.296875 29.640625 -25.671875 C 31.921875 -23.046875 33.0625 -19.28125 33.0625 -14.375 C 33.0625 -11.113281 32.539062 -8.34375 31.5 -6.0625 C 30.46875 -3.78125 29.070312 -2.054688 27.3125 -0.890625 C 25.550781 0.273438 23.539062 0.859375 21.28125 0.859375 Z M 18.96875 -1.15625 C 20.195312 -1.15625 21.222656 -2.117188 22.046875 -4.046875 C 22.867188 -5.984375 23.28125 -9.425781 23.28125 -14.375 C 23.28125 -19.550781 22.828125 -23.097656 21.921875 -25.015625 C 21.023438 -26.929688 19.753906 -27.890625 18.109375 -27.890625 C 17.117188 -27.890625 16.101562 -27.503906 15.0625 -26.734375 C 14.757812 -26.503906 14.335938 -26.125 13.796875 -25.59375 L 13.796875 -5.75 C 14.140625 -4.863281 14.5625 -4.097656 15.0625 -3.453125 C 16.21875 -1.921875 17.519531 -1.15625 18.96875 -1.15625 Z M 18.96875 -1.15625 "/></g></g></g><g fill="#ffffff" fill-opacity="1"><g transform="translate(194.961876, 205.790187)"><g><path d="M 2.296875 -0.859375 L 5.75 -1.71875 L 5.75 -38.53125 L 2.296875 -39.390625 L 2.296875 -40.25 L 9.78125 -40.25 C 13.226562 -40.25 14.953125 -38.523438 14.953125 -35.078125 L 14.953125 -1.71875 L 18.40625 -0.859375 L 18.40625 0 L 2.296875 0 Z M 2.296875 -0.859375 "/></g></g></g><g fill="#ffffff" fill-opacity="1"><g transform="translate(214.509242, 205.790187)"><g><path d="M 17.53125 0.859375 C 12.78125 0.859375 9.050781 -0.488281 6.34375 -3.1875 C 3.644531 -5.894531 2.296875 -9.625 2.296875 -14.375 C 2.296875 -19.125 3.644531 -22.847656 6.34375 -25.546875 C 9.050781 -28.253906 12.78125 -29.609375 17.53125 -29.609375 C 22.289062 -29.609375 26.019531 -28.253906 28.71875 -25.546875 C 31.425781 -22.847656 32.78125 -19.125 32.78125 -14.375 C 32.78125 -9.625 31.425781 -5.894531 28.71875 -3.1875 C 26.019531 -0.488281 22.289062 0.859375 17.53125 0.859375 Z M 17.53125 -0.28125 C 19.070312 -0.28125 20.367188 -1.351562 21.421875 -3.5 C 22.472656 -5.65625 23 -9.28125 23 -14.375 C 23 -19.46875 22.472656 -23.085938 21.421875 -25.234375 C 20.367188 -27.390625 19.070312 -28.46875 17.53125 -28.46875 C 16 -28.46875 14.707031 -27.390625 13.65625 -25.234375 C 12.601562 -23.085938 12.078125 -19.46875 12.078125 -14.375 C 12.078125 -9.28125 12.601562 -5.65625 13.65625 -3.5 C 14.707031 -1.351562 16 -0.28125 17.53125 -0.28125 Z M 17.53125 -0.28125 "/></g></g></g><g fill="#ffffff" fill-opacity="1"><g transform="translate(249.579522, 205.790187)"><g><path d="M 15.8125 12.359375 C 12.394531 12.359375 9.613281 12.050781 7.46875 11.4375 C 5.320312 10.820312 3.78125 10.035156 2.84375 9.078125 C 1.90625 8.117188 1.4375 7.101562 1.4375 6.03125 C 1.4375 4.726562 1.828125 3.679688 2.609375 2.890625 C 3.398438 2.109375 4.445312 1.71875 5.75 1.71875 C 6.050781 1.71875 6.609375 1.773438 7.421875 1.890625 L 8.046875 2.015625 L 8.046875 10.0625 C 8.503906 10.21875 9.234375 10.410156 10.234375 10.640625 C 11.992188 11.023438 13.660156 11.21875 15.234375 11.21875 C 19.910156 11.21875 23.332031 10.554688 25.5 9.234375 C 27.664062 7.910156 28.75 6.269531 28.75 4.3125 C 28.75 1.820312 26.445312 0.578125 21.84375 0.578125 L 10.921875 0.578125 C 8.046875 0.578125 5.84375 -0.015625 4.3125 -1.203125 C 2.78125 -2.390625 2.015625 -3.90625 2.015625 -5.75 C 2.015625 -7.59375 2.914062 -9.222656 4.71875 -10.640625 C 5.445312 -11.171875 6.363281 -11.648438 7.46875 -12.078125 C 6.050781 -12.953125 5.023438 -13.992188 4.390625 -15.203125 C 3.765625 -16.410156 3.453125 -17.859375 3.453125 -19.546875 C 3.453125 -22.390625 4.523438 -24.679688 6.671875 -26.421875 C 8.816406 -28.160156 11.957031 -29.03125 16.09375 -29.03125 C 17.894531 -29.03125 19.550781 -28.847656 21.0625 -28.484375 C 22.582031 -28.117188 23.800781 -27.632812 24.71875 -27.03125 C 25.03125 -27.675781 25.4375 -28.25 25.9375 -28.75 C 27.082031 -29.894531 28.5 -30.46875 30.1875 -30.46875 C 31.488281 -30.46875 32.578125 -30.015625 33.453125 -29.109375 C 34.335938 -28.210938 34.78125 -27.039062 34.78125 -25.59375 C 34.78125 -24.476562 34.484375 -23.570312 33.890625 -22.875 C 33.296875 -22.1875 32.539062 -21.84375 31.625 -21.84375 C 31.207031 -21.84375 30.726562 -21.882812 30.1875 -21.96875 L 29.609375 -22.140625 L 29.609375 -29.03125 C 28.617188 -29.03125 27.679688 -28.550781 26.796875 -27.59375 C 26.453125 -27.25 26.144531 -26.769531 25.875 -26.15625 C 27.789062 -24.46875 28.75 -22.265625 28.75 -19.546875 C 28.75 -16.710938 27.675781 -14.421875 25.53125 -12.671875 C 23.382812 -10.929688 20.238281 -10.0625 16.09375 -10.0625 C 13.332031 -10.0625 10.84375 -10.539062 8.625 -11.5 L 7.46875 -10.921875 C 7.09375 -10.691406 6.804688 -10.472656 6.609375 -10.265625 C 6.421875 -10.054688 6.328125 -9.796875 6.328125 -9.484375 C 6.328125 -8.835938 6.660156 -8.335938 7.328125 -7.984375 C 8.003906 -7.640625 9.203125 -7.46875 10.921875 -7.46875 L 21.84375 -7.46875 C 24.71875 -7.46875 26.96875 -6.632812 28.59375 -4.96875 C 30.226562 -3.300781 31.046875 -0.972656 31.046875 2.015625 C 31.046875 5.078125 29.769531 7.566406 27.21875 9.484375 C 24.675781 11.398438 20.875 12.359375 15.8125 12.359375 Z M 16.09375 -11.21875 C 17.363281 -11.21875 18.351562 -11.828125 19.0625 -13.046875 C 19.769531 -14.273438 20.125 -16.441406 20.125 -19.546875 C 20.125 -22.648438 19.769531 -24.816406 19.0625 -26.046875 C 18.351562 -27.273438 17.363281 -27.890625 16.09375 -27.890625 C 14.832031 -27.890625 13.847656 -27.273438 13.140625 -26.046875 C 12.429688 -24.816406 12.078125 -22.648438 12.078125 -19.546875 C 12.078125 -16.441406 12.429688 -14.273438 13.140625 -13.046875 C 13.847656 -11.828125 14.832031 -11.21875 16.09375 -11.21875 Z M 16.09375 -11.21875 "/></g></g></g></svg>